<svg width="16" height="23" viewBox="0 0 16 23" fill="none" xmlns="http://www.w3.org/2000/svg">
<path d="M8 1H4.5C2.567 1 1 2.567 1 4.5C1 6.433 2.567 8 4.5 8M8 1V8M8 1H11.5C13.433 1 15 2.567 15 4.5C15 6.433 13.433 8 11.5 8M4.5 8H8M4.5 8C2.567 8 1 9.567 1 11.5C1 13.433 2.567 15 4.5 15M8 8V15M8 8H11.5M11.5 8C13.433 8 15 9.567 15 11.5C15 13.433 13.433 15 11.5 15C9.567 15 8 13.433 8 11.5C8 9.567 9.567 8 11.5 8ZM8 15H4.5M8 15V18.5C8 20.433 6.433 22 4.5 22C2.567 22 1 20.433 1 18.5C1 16.567 2.567 15 4.5 15" stroke="currentColor" stroke-width="2" stroke-linecap="round" stroke-linejoin="round"/>
</svg>
