<svg width="24" height="24" viewBox="0 0 24 24" fill="none" xmlns="http://www.w3.org/2000/svg">
<path d="M2.00195 6.74028C2.00195 4.56159 3.76813 2.79541 5.94682 2.79541C8.12551 2.79541 9.89169 4.56159 9.89169 6.74028V17.2599C9.89169 19.4386 8.12551 21.2048 5.94682 21.2048C3.76813 21.2048 2.00195 19.4386 2.00195 17.2599V6.74028Z" stroke="currentColor" stroke-width="2"/>
<path d="M13.5558 15.9428L17.8949 11.6037C19.4355 10.0631 19.4355 7.56536 17.8949 6.02479C16.3543 4.48423 13.8566 4.48423 12.316 6.02479" stroke="currentColor" stroke-width="1.75" stroke-linecap="round"/>
<path d="M11.9206 21.0676L18.0571 21.0676C20.2358 21.0676 22.002 19.3015 22.002 17.1228C22.002 15.852 21.401 14.7215 20.4678 14" stroke="currentColor" stroke-width="1.75" stroke-linecap="round"/>
<path d="M5.97949 16.6196C6.15832 16.6196 6.3296 16.6905 6.45605 16.8169C6.58251 16.9433 6.65429 17.1146 6.6543 17.2935C6.6543 17.4723 6.58252 17.6436 6.45605 17.77C6.32959 17.8965 6.15834 17.9683 5.97949 17.9683C5.80066 17.9683 5.62938 17.8965 5.50293 17.77C5.37649 17.6436 5.30566 17.4723 5.30566 17.2935C5.30567 17.1146 5.37648 16.9433 5.50293 16.8169C5.62938 16.6904 5.80066 16.6196 5.97949 16.6196Z" fill="currentColor" stroke="currentColor" stroke-width="1.34867"/>
</svg>
